<svg width="100" height="100" xmlns="http://www.w3.org/2000/svg" viewBox="0 0 100 100">
  <circle cx="50" cy="50" r="40" fill="#3498db" opacity="0.2"/>
  <path d="M70,30H61.2c-1.1,0-2.1-0.7-2.5-1.7l-2.2-5.5c-0.4-1-1.4-1.7-2.5-1.7H46c-1.1,0-2.1,0.7-2.5,1.7l-2.2,5.5
  c-0.4,1-1.4,1.7-2.5,1.7H30c-3.3,0-6,2.7-6,6v35c0,3.3,2.7,6,6,6h40c3.3,0,6-2.7,6-6V36C76,32.7,73.3,30,70,30z" 
  fill="#3498db"/>
  <circle cx="50" cy="55" r="15" fill="#2c3e50"/>
  <circle cx="50" cy="55" r="12" fill="#3498db"/>
  <circle cx="50" cy="55" r="6" fill="#2c3e50"/>
  <circle cx="65" cy="40" r="3" fill="#e74c3c"/>
</svg>